<svg width="120" height="120" viewBox="0 0 120 120" fill="none" xmlns="http://www.w3.org/2000/svg">
<rect width="120" height="120" rx="20" fill="#FFF8EE"/>
<g clip-path="url(#clip0_107_6778)">
<path d="M59.1828 20C59.1828 20 44.9062 57.2979 25 63.4165C25 63.4165 46.0237 74.7316 58.652 100.7C58.652 100.7 74.074 75.3183 94.986 62.6063C94.986 62.6063 63.6809 56.823 59.1828 20Z" fill="#ED7D23"/>
<g style="mix-blend-mode:overlay" opacity="0.3">
<path d="M41.1764 53.5121C38.4524 59.1557 52.715 69.9959 59.9232 74.0609C67.1313 78.126 84.1878 64.4501 86.8978 62.7039C89.6079 60.9577 72.8308 55.2443 66.6424 44.027C60.454 32.8236 61.5157 29.4012 58.8755 28.102C56.2353 26.7889 41.1764 53.5121 41.1764 53.5121Z" fill="white"/>
</g>
<path d="M66.5865 45.4661C60.1607 42.4208 66.9357 57.0187 70.7913 58.8627C74.6468 60.7066 75.8761 55.4542 74.7585 52.7302C73.641 49.9922 66.5865 45.4801 66.5865 45.4801V45.4661Z" fill="white"/>
</g>
<defs>
<clipPath id="clip0_107_6778">
<rect width="70" height="80.7005" fill="white" transform="translate(25 20)"/>
</clipPath>
</defs>
</svg>
