<svg width="120" height="120" viewBox="0 0 120 120" fill="none" xmlns="http://www.w3.org/2000/svg">
<rect width="120" height="120" rx="20" fill="#FFECF3"/>
<g clip-path="url(#clip0_107_6749)">
<path d="M90.7453 63.0396V63.0951C83.4418 75.2768 70.3315 87.5556 60.8661 95.1085C60.8661 95.1085 29.9336 70.2323 25.5543 48.5989C25.5543 48.5435 25.5127 48.5435 25.5127 48.5435C24.5287 43.7623 24.889 39.1612 27.2034 34.9482C27.5638 34.2691 28.0211 33.59 28.5062 32.911C45.1781 10.2105 59.9653 37.0824 60.381 46.5756C60.381 46.5756 62.5984 32.5091 69.791 26.5498C73.7546 23.3069 79.2565 22.517 86.6847 28.005C96.5521 35.3085 97.2866 52.0913 90.7592 63.0396H90.7453Z" fill="#ED3567"/>
<g style="mix-blend-mode:overlay" opacity="0.3">
<path d="M83.0677 36.0988C80.8642 51.0384 59.2032 70.3712 54.9208 68.9299C44.0834 65.2712 32.3313 48.5854 27.2036 34.9485C27.5639 34.2694 28.0212 33.5904 28.5063 32.9113C45.1782 10.2108 59.9654 37.0827 60.3811 46.5759C60.3811 46.5759 62.5985 32.5094 69.7912 26.5502C77.2332 26.2176 84.3566 27.4233 83.0677 36.0988Z" fill="white"/>
</g>
<path d="M65.7721 37.9278C65.7306 45.6332 74.1566 33.493 73.1865 29.7651C72.2164 26.0232 65.8137 31.539 65.7721 37.9278Z" fill="white"/>
</g>
<defs>
<clipPath id="clip0_107_6749">
<rect width="70" height="71.0948" fill="white" transform="translate(25 24)"/>
</clipPath>
</defs>
</svg>
