<svg width="120" height="120" viewBox="0 0 120 120" fill="none" xmlns="http://www.w3.org/2000/svg">
<rect width="120" height="120" rx="20" fill="#E8EFFF"/>
<g clip-path="url(#clip0_107_6770)">
<path d="M29.6527 46.5269L29.6806 46.499C37.2675 36.6487 50.6946 26.9102 60.3633 21C60.3633 21 90.7245 42.3912 94.5808 60.3593C94.5529 60.3872 94.6088 60.3872 94.6088 60.3872C95.6008 65.0259 94.8044 69.3992 91.2555 73.1577C74.014 91.3912 59.8463 68.7984 59.6647 60.974C59.6647 60.974 53.4331 88.7784 32.8802 75.505C23.1836 69.2036 22.8483 55.3433 29.6527 46.513V46.5269Z" fill="#153898"/>
<path d="M59.6647 60.9741C59.6647 60.9741 60.992 90.3853 41.1796 99.8583L76.2495 99.6627C76.2495 99.6627 59.0499 88.4572 59.6647 60.9881V60.9741Z" fill="#153898"/>
<g style="mix-blend-mode:overlay" opacity="0.3">
<path d="M60.8663 24.6609C56.6327 23.3335 34.487 38.6329 31.9162 50.8585C29.3453 63.084 52.0359 57.9004 58.477 58.8225C64.9182 59.7447 77.982 73.1858 87.5808 68.2956C97.1796 63.4054 78.2196 30.082 60.8802 24.6609H60.8663Z" fill="white"/>
</g>
<path d="M71.5549 32.4014C65.5749 30.2637 72.2256 41.5391 75.4531 41.623C78.6806 41.7208 76.515 34.1619 71.5549 32.4014Z" fill="white"/>
</g>
<defs>
<clipPath id="clip0_107_6770">
<rect width="70" height="78.8583" fill="white" transform="translate(25 21)"/>
</clipPath>
</defs>
</svg>
