<svg width="224" height="92" viewBox="0 0 224 92" fill="none" xmlns="http://www.w3.org/2000/svg">
<g filter="url(#filter0_d_34_17)">
<rect width="224" height="86" rx="12" fill="#603BA7"/>
<rect x="2.5" y="2.5" width="219" height="81" rx="9.5" stroke="#9B7DD5" stroke-width="5"/>
<path d="M59.328 33.832H54.304V35.464H59.328V33.832ZM54.304 39.688H59.328V37.96H54.304V39.688ZM62.912 42.44H54.304V59.784H50.592V31.112H62.912V42.44ZM62.4 49.48H65.376V47.08H62.4V49.48ZM72.224 52.584H68.704V59.176H65.376V52.584H62.304C61.984 54.792 60.928 57.896 58.208 59.752C57.664 59.08 56.512 58.088 55.776 57.576C57.824 56.296 58.72 54.216 59.04 52.584H55.808V49.48H59.168V47.08H56.256V44.072H71.712V47.08H68.704V49.48H72.224V52.584ZM68.64 39.752H73.824V37.96H68.64V39.752ZM73.824 33.832H68.64V35.464H73.824V33.832ZM77.568 31.112V55.336C77.568 57.288 77.216 58.344 76.064 58.952C74.912 59.592 73.248 59.688 70.816 59.688C70.688 58.632 70.176 56.904 69.664 55.912C71.104 55.976 72.672 55.976 73.152 55.944C73.664 55.944 73.824 55.752 73.824 55.304V42.504H65.024V31.112H77.568ZM89.152 39.72L86.848 39.88C86.4 42.088 85.888 44.232 85.408 46.12C86.176 46.728 86.944 47.4 87.712 48.072C88.768 45.16 89.088 42.216 89.152 39.72ZM93.952 39.368L92.576 39.464C92.512 42.76 92.096 46.664 90.56 50.504C91.968 51.816 93.248 53 94.08 53.992L91.744 56.968C91.008 56.104 90.016 55.016 88.832 53.864C87.52 55.976 85.76 57.96 83.36 59.752C82.848 58.952 81.6 57.736 80.8 57.16C83.232 55.432 84.96 53.416 86.208 51.368C84.608 49.896 83.008 48.456 81.6 47.24C82.208 45.32 82.816 42.792 83.36 40.104L81.28 40.232L80.928 36.84C81.856 36.808 82.88 36.776 83.968 36.712C84.352 34.44 84.672 32.136 84.832 30.088L88.352 30.312C88.128 32.264 87.84 34.408 87.456 36.552L89.184 36.456V34.408H92.576V36.264L93.984 36.2L93.952 39.368ZM111.424 43.432L108.16 45.192C107.968 44.552 107.68 43.816 107.36 43.08C96.928 43.976 95.328 44.136 94.144 44.616C93.92 43.88 93.344 42.056 92.928 41.064C93.6 40.872 94.176 40.232 94.944 39.08C95.744 37.992 97.984 33.896 99.36 29.928L103.328 30.984C101.952 34.248 100.128 37.576 98.368 40.264L105.6 39.752C104.8 38.408 103.936 37.064 103.104 35.912L106.144 34.408C108.352 37.192 110.528 40.872 111.424 43.432ZM105.664 49.736H97.824V55.144H105.664V49.736ZM94.336 59.784V46.408H109.312V59.752H105.664V58.504H97.824V59.784H94.336ZM123.712 39.848V37.128H121.248V34.024H125.536C125.28 32.936 124.896 31.528 124.512 30.44L127.84 29.832C128.32 31.144 128.896 32.84 129.12 33.96L128.864 34.024H131.968V35.848C133.056 34.088 133.92 31.88 134.528 29.736L137.696 30.632C137.472 31.464 137.152 32.296 136.832 33.128H142.912V36.232H135.424C135.104 36.904 134.752 37.512 134.4 38.12H140.064L140.672 37.928L142.688 39.496C141.664 40.776 140.416 42.12 139.136 43.272V44.328H142.848V47.336H139.136V51.24C139.136 52.744 138.944 53.608 137.888 54.12C136.928 54.632 135.584 54.696 133.76 54.696C133.664 53.768 133.216 52.456 132.736 51.56C133.888 51.592 135.072 51.592 135.424 51.592C135.808 51.592 135.904 51.496 135.904 51.176V47.336H132.352V44.328H135.904V42.536C136.48 42.088 137.088 41.512 137.6 40.904H133.248V38.984C132.608 38.44 131.616 37.672 131.008 37.288L131.136 37.128H126.72V39.624H131.872C131.872 39.624 131.84 40.52 131.84 40.936C131.552 49.416 131.296 52.584 130.528 53.608C130.016 54.376 129.44 54.632 128.64 54.792C128 54.888 126.976 54.92 125.888 54.888C125.824 53.96 125.504 52.68 125.088 51.848C125.856 51.944 126.528 51.944 126.944 51.944C127.296 51.944 127.52 51.848 127.744 51.528C128.128 50.92 128.384 48.744 128.608 42.696H126.656C126.432 46.44 125.6 50.952 123.04 54.152C122.56 53.512 121.472 52.456 120.768 52.008C123.424 48.456 123.712 43.304 123.712 39.848ZM120.672 34.792L117.632 36.68C116.896 35.336 115.36 33.096 114.112 31.528L117.024 29.928C118.336 31.464 119.872 33.48 120.672 34.792ZM120.096 44.968L121.696 45.64C121.376 48.008 120.896 50.152 120.256 52.008C122.112 55.496 125.728 55.944 131.104 55.976C134.528 55.976 139.776 55.784 143.392 55.432C142.848 56.2 142.368 57.896 142.176 58.952C138.848 59.144 134.784 59.24 131.04 59.24C125.12 59.24 121.376 58.6 118.944 55.208C117.888 57.192 116.608 58.76 115.168 59.88C114.688 59.112 113.408 57.832 112.704 57.352C115.328 55.496 117.088 52.296 117.984 48.008H116.128C115.392 48.008 114.432 48.232 114.176 48.488C113.984 47.688 113.28 46.088 112.928 45.384C113.472 45.256 113.984 45 114.56 44.36C115.104 43.816 116.288 42.056 117.376 40.36H113.408V37.32H119.552L120.032 37.128L122.368 38.088C121.248 39.848 119.36 42.856 117.76 45.064H119.488L120.096 44.968ZM174.624 35.464L171.68 37.032C171.072 35.688 169.824 33.384 168.832 31.752L171.616 30.376C172.64 31.976 173.984 34.152 174.624 35.464ZM149.6 37.512V43.784C149.6 48.296 149.216 55.112 147.136 59.464C146.624 58.888 145.216 57.8 144.576 57.448C146.368 53.48 146.496 47.848 146.496 43.784V35.112H152.416V29.896H155.936V31.496H162.528V33.928H155.936V35.112H160.768L161.216 35.016L163.488 35.4C163.136 37.128 162.624 39.176 162.176 40.456L159.488 39.976C159.648 39.336 159.84 38.44 160 37.512H156.096V38.856L158.912 38.632L159.168 40.52L156.096 40.808V41.032C156.096 41.704 156.16 41.992 156.864 41.992H159.168C159.776 41.992 160.928 41.96 161.408 41.8C161.472 42.6 161.504 43.176 161.632 43.88C161.152 44.072 160.16 44.104 159.328 44.104H155.904C153.536 44.104 153.056 43.048 153.056 41.064L150.08 41.352L149.856 39.4L153.056 39.144V37.512H149.6ZM162.752 44.776V47.112H150.24V44.776H162.752ZM153.76 49.832V51.304H159.04V49.832H153.76ZM162.048 53.096H150.912V48.008H162.048V53.096ZM171.648 42.056L174.464 43.56C173.536 46.824 172.064 50.12 170.176 52.968C170.592 54.376 171.104 55.208 171.616 55.24C172.096 55.24 172.416 53.736 172.576 51.048C173.12 51.816 174.592 52.84 175.2 53.192C174.4 58.504 172.832 59.72 171.584 59.688C169.92 59.624 168.672 58.376 167.68 56.2C166.72 57.224 165.76 58.152 164.704 58.888C164.192 58.216 163.36 57.416 162.624 56.84V58.152C157.952 58.568 153.056 58.984 149.472 59.208L149.12 56.456L152.576 56.232C152.384 55.432 152.096 54.568 151.84 53.832L154.4 53.384C154.752 54.216 155.104 55.208 155.296 56.04L157.024 55.912C157.44 55.016 157.888 53.992 158.144 53.192L161.28 53.64C160.864 54.376 160.448 55.048 160.032 55.72L162.624 55.528V56.008C164 55.048 165.312 53.832 166.496 52.36C165.856 49.608 165.44 46.152 165.152 42.152L163.168 42.408L162.72 39.08L164.928 38.792C164.8 36.072 164.704 33.16 164.64 30.056H168.128C168.128 32.936 168.224 35.72 168.352 38.344L174.528 37.512L174.944 40.808L168.544 41.672C168.736 44.072 168.96 46.312 169.216 48.168C170.24 46.248 171.072 44.136 171.648 42.056Z" fill="white"/>
</g>
<defs>
<filter id="filter0_d_34_17" x="0" y="0" width="224" height="92" filterUnits="userSpaceOnUse" color-interpolation-filters="sRGB">
<feFlood flood-opacity="0" result="BackgroundImageFix"/>
<feColorMatrix in="SourceAlpha" type="matrix" values="0 0 0 0 0 0 0 0 0 0 0 0 0 0 0 0 0 0 127 0" result="hardAlpha"/>
<feOffset dy="6"/>
<feComposite in2="hardAlpha" operator="out"/>
<feColorMatrix type="matrix" values="0 0 0 0 0.39534 0 0 0 0 0.271439 0 0 0 0 0.634883 0 0 0 1 0"/>
<feBlend mode="normal" in2="BackgroundImageFix" result="effect1_dropShadow_34_17"/>
<feBlend mode="normal" in="SourceGraphic" in2="effect1_dropShadow_34_17" result="shape"/>
</filter>
</defs>
</svg>
